<svg viewBox="0 0 92 35" fill="none" xmlns="http://www.w3.org/2000/svg" class="h-auto w-20 -scale-x-100" style="transform: translateY(5%);"><path d="M30.4 17.4049C30.4 20.2998 29.5502 23.1298 27.958 25.5369C26.3658 27.944 24.1028 29.8201 21.4551 30.9279C18.8073 32.0358 15.8939 32.3257 13.0831 31.7609C10.2723 31.1961 7.69042 29.802 5.66395 27.755C3.63749 25.7079 2.25744 23.0998 1.69834 20.2605C1.13924 17.4211 1.42619 14.478 2.52291 11.8034C3.61963 9.1288 5.47685 6.84277 7.85972 5.2344C10.2426 3.62604 13.0441 2.76758 15.91 2.76758" stroke="white" stroke-width="2.46648"></path><path d="M61.7875 17.4049C61.7875 20.2998 62.6373 23.1298 64.2295 25.5369C65.8217 27.944 68.0847 29.8201 70.7324 30.9279C73.3802 32.0358 76.2936 32.3257 79.1044 31.7609C81.9152 31.1961 84.4971 29.802 86.5235 27.755C88.55 25.7079 89.9301 23.0998 90.4892 20.2605C91.0483 17.4211 90.7613 14.478 89.6646 11.8034C88.5679 9.1288 86.7106 6.84277 84.3278 5.2344C81.9449 3.62604 79.1434 2.76758 76.2775 2.76758" stroke="white" stroke-width="2.46648"></path><ellipse cx="46.1039" cy="17.4773" rx="15.7035" ry="15.8631" stroke="white" stroke-width="2.46648"></ellipse></svg>